<svg width="9.435059" height="16.360840" viewBox="0 0 9.43506 16.3608" fill="none" xmlns="http://www.w3.org/2000/svg" xmlns:xlink="http://www.w3.org/1999/xlink">
	<desc>
			Created with Pixso.
	</desc>
	<defs/>
	<path id="$" d="M5.23828 16.3608L4.19238 16.3608L4.19238 14.937C1.67871 14.77 0.14502 13.3638 0 11.3511L1.63477 11.3511C1.74902 12.6694 2.84766 13.3594 4.19238 13.5L4.19238 8.66162L3.68262 8.51221C1.63477 7.92334 0.355957 6.87744 0.355957 5.11084C0.355957 3.10693 1.99951 1.71387 4.19238 1.48975L4.19238 0L5.23828 0L5.23828 1.46777C7.5542 1.62158 9.18896 3.04102 9.25488 4.90869L7.72119 4.90869C7.58057 3.74414 6.59619 3.01465 5.23828 2.88281L5.23828 7.42676L5.75244 7.56738C7.10596 7.92334 9.43506 8.71875 9.43506 11.1709C9.43506 13.166 7.92334 14.7524 5.23828 14.937L5.23828 16.3608ZM1.88965 5.03613C1.88965 6.33252 3.22119 6.86865 4.19238 7.14551L4.19238 2.90039C2.78613 3.08496 1.88965 3.92871 1.88965 5.03613ZM5.23828 8.96045L5.23828 13.5C6.78516 13.3242 7.90137 12.4321 7.90137 11.1445C7.90137 9.84375 6.6709 9.35596 5.29102 8.97363L5.23828 8.96045Z" fill="#FFFFFF" fill-opacity="1.000000" fill-rule="evenodd"/>
</svg>
